<svg xmlns="http://www.w3.org/2000/svg" xml:space="preserve" style="enable-background:new 0 0 48 48;max-width:100%"
  viewBox="0 0 48 48">
  <style>
    .st0 {
      fill: #505155 
    }
  </style>
  <g fill="#505155">
    <path d="M5.4 0h7.2v3.2H5.4zM10 27.1h8v11.4h-8z" />
    <path
      d="M12.6 13.8V5.2H5.4v8.6C2.2 15.2 0 18.4 0 22v23c0 1.7 1.3 3 3 3h12c1.7 0 3-1.3 3-3v-4.6H9c-.6 0-1-.4-1-1V26.1c0-.6.4-1 1-1h9v-3c0-3.7-2.3-6.9-5.4-8.3zM47.6 24.4c.8-.9.2-2.4-1.1-2.4H22.1c-1.2 0-1.9 1.5-1.1 2.4l11.5 13.2v7h-2.8V48h9.2v-3.4h-2.8v-7l11.5-13.2zm-16.5 3.2c-.6-.6-1.6-.6-2.2 0-.6.6-1.6.6-2.2 0l-3-3.5H45l-3 3.5c-.6.6-1.6.6-2.2 0-.6-.6-1.6-.6-2.2 0-.6.6-1.6.6-2.2 0-.6-.6-1.6-.6-2.2 0-.6.6-1.5.6-2.1 0z" />
  </g>
</svg>