<svg xmlns="http://www.w3.org/2000/svg" xml:space="preserve" style="enable-background:new 0 0 48 48;max-width:100%"
  viewBox="0 0 48 48">
  <style>
    .st0 {
      fill: #505155
    }
  </style>
  <g fill="#505155">
    <path
      d="M9.7 0C6.1 0 3.2 4.2 3.2 9.4c0 4.5 2.2 8.2 5.1 9.2V28c-.7.4-1.1 1.2-1.1 2.1v15.5c0 1.4 1.1 2.5 2.5 2.5s2.5-1.1 2.5-2.5V30c0-.9-.4-1.6-1.1-2.1v-9.4c2.9-.9 5.1-4.7 5.1-9.2-.1-5.1-3-9.3-6.5-9.3zM30.3 0c-.7 0-1.3.6-1.3 1.3v9.3c0 .7-.6 1.2-1.2 1.2-.7 0-1.2-.6-1.2-1.2V1.3C26.6.6 26 0 25.3 0H25c-.7 0-1.3.6-1.3 1.3v9.3c0 .7-.6 1.2-1.2 1.2-.7 0-1.2-.6-1.2-1.2V1.3C21.3.6 20.7 0 20 0s-1.3.6-1.3 1.3V12c0 3.2 2.2 6 5.2 6.7v9.2c-.7.4-1.1 1.2-1.1 2.1v15.5c0 1.4 1.1 2.5 2.5 2.5s2.5-1.1 2.5-2.5V30c0-.9-.4-1.6-1.1-2.1v-9.2c2.9-.6 5.2-3.3 5.2-6.4v-11C31.7.6 31.1 0 30.3 0zM36.3 16.5v13.2h8.6V0c-5.4 3.8-8.6 9.9-8.6 16.5zM39.2 45.2c0 1.6 1.3 2.8 2.8 2.8s2.8-1.3 2.8-2.8V31.7h-5.6v13.5z" />
  </g>
</svg>