<svg xmlns="http://www.w3.org/2000/svg" xml:space="preserve" style="max-width:100%" viewBox="0 0 100 100"><g fill="currentColor"><path d="M-143.306-2.593H-6.269V70.74h-137.037zM-1.083-29.259h74.074v22.222H-1.083z"/><text font-family="'Helvetica'" font-size="1.778" transform="translate(47.806 -17.037)">http://thenounproject.com</text><text font-family="'Helvetica-Bold'" font-size="4.561" transform="translate(4.225 -20.74)">The Noun Project</text><text font-family="'Helvetica-Bold'" font-size="2.963" transform="translate(5.055 -17.185)">Icon Template</text><text font-family="'Helvetica-Bold'" font-size="4.561" transform="translate(-133.305 5.186)">Reminders</text><path stroke="#FFF" stroke-miterlimit="10" d="M4.843-13.333h7.407M-133.676 9.63h12.593"/><g><path d="M-127.603 20.606h6.46v6.401h-6.46z"/><path d="M-122.902 28.75h3.516v-3.484h-3.516v3.484zm3.844.323h-4.17V24.94h4.17v4.133zm-5.152.973h6.133V23.97h-6.133v6.076zm6.46.324h-6.787v-6.725h6.787v6.725z"/><path d="m-124.157 30.099-.106-.106 6.133-6.077.105.105z"/></g><path fill="none" d="M-133.676 40.37h25.926v24.074h-25.926z"/><text font-family="'Helvetica-Bold'" font-size="2.222" transform="translate(-133.676 41.969)">Strokes</text><text font-family="'Helvetica'" font-size="1.778" transform="translate(-133.676 45.672)">Try to keep strokes at 4px</text><text font-family="'Helvetica'" font-size="1.778" transform="translate(-133.676 49.376)">Minimum stroke weight is 2px</text><text font-family="'Helvetica'" font-size="1.778" transform="translate(-133.676 52.709)">For thicker strokes use even </text><text font-family="'Helvetica'" font-size="1.778" transform="translate(-133.676 54.932)">numbers: 6px, 8px etc.</text><text font-family="'Helvetica-Bold'" font-size="1.778" transform="translate(-133.676 58.265)">Remember to expand strokes </text><text font-family="'Helvetica-Bold'" font-size="1.778" transform="translate(-133.676 60.487)">before saving as an SVG </text><path fill="none" d="M-102.194 40.37h25.926v24.074h-25.926z"/><text font-family="'Helvetica-Bold'" font-size="2.222" transform="translate(-102.194 41.969)">Size</text><text font-family="'Helvetica'" font-size="1.778" transform="translate(-102.194 45.672)">Cannot be wider or taller than </text><text font-family="'Helvetica'" font-size="1.778" transform="translate(-102.194 48.265)">100px (artboard size)</text><text font-family="'Helvetica'" font-size="1.778" transform="translate(-102.194 51.969)">Scale your icon to fill as much of </text><text font-family="'Helvetica'" font-size="1.778" transform="translate(-102.194 54.19)">the Safe Area as possible (within </text><text font-family="'Helvetica'" font-size="1.778" transform="translate(-102.194 56.413)">the guides)</text><path fill="none" d="M-70.713 40.37h25.926v24.074h-25.926z"/><text font-family="'Helvetica-Bold'" font-size="2.222" transform="translate(-70.713 41.969)">Ungroup</text><text font-family="'Helvetica'" font-size="1.778" transform="translate(-70.713 45.672)">If your design has more than one </text><text font-family="'Helvetica'" font-size="1.778" transform="translate(-70.713 47.895)">shape, make sure to ungroup.</text><path fill="none" d="M-38.12 40.37h25.926v24.074H-38.12z"/><text font-family="'Helvetica-Bold'" font-size="2.222" transform="translate(-38.12 41.969)">Save as</text><text font-family="'Helvetica'" font-size="1.778" transform="translate(-38.12 45.672)">Save as .SVG and make sure </text><text font-family="'Helvetica'" font-size="1.778" transform="translate(-38.12 47.895)">“Use Artboards” is checked.</text><text font-family="'Helvetica'" font-size="1.906" transform="matrix(1.0074 0 0 1 -94.078 20.07)">100px</text><text font-family="'Helvetica-Bold'" font-size="3.812" transform="matrix(1.0074 0 0 1 -31.454 26.296)">.SVG</text><path d="M-94.797 23.196h7.601v7.544h-7.601zM-94.77 20.938h.387v1.731h-.387zM-87.611 20.938h.387v1.731h-.387z"/><path d="M-95.157 21.361h8.321v.424h-8.321z"/><g><path d="M-63.161 22.477h7.633V30h-7.633zM-57.979 18.672h2.45v2.416h-2.45z"/></g><path stroke="#FFF" stroke-miterlimit="10" d="M-133.306 14.074h22.222v22.222h-22.222zM-102.194 14.074h22.222v22.222h-22.222zM-70.343 14.074h22.222v22.222h-22.222zM-37.75 14.074h22.222v22.222H-37.75z"/></g><text fill="currentColor" font-family="'HelveticaNeue-Bold'" font-size="3.704" transform="translate(14.26 117.444)">Created by Araz Murat Ak</text><text fill="currentColor" font-family="'HelveticaNeue-Bold'" font-size="3.704" transform="translate(14.26 121.148)">from the Noun Project</text><path fill="currentColor" d="M81.032 50a3.214 3.214 0 0 1-3.215 3.215H17.795a3.214 3.214 0 1 1 0-6.43h60.023A3.214 3.214 0 0 1 81.032 50z"/><path fill="currentColor" d="M80.091 52.273a3.215 3.215 0 0 1-4.547 0L65.435 42.165a3.215 3.215 0 1 1 4.547-4.547l10.109 10.109a3.215 3.215 0 0 1 0 4.546z"/><path fill="currentColor" d="M65.435 62.382a3.215 3.215 0 0 1 0-4.547l10.109-10.109a3.215 3.215 0 1 1 4.547 4.547L69.982 62.382a3.215 3.215 0 0 1-4.547 0z"/></svg>