<svg xmlns="http://www.w3.org/2000/svg" xml:space="preserve" style="enable-background:new 0 0 48 48;max-width:100%"
  viewBox="0 0 48 48">
  <style>
    .st0 {
      fill: #505155 
    }
  </style>
  <g fill="#505155">
    <path d="M15.1 32.3h17.8v8.1H15.1z" />
    <path
      d="M32.5 9.2V3.8c0-2.1-1.7-3.8-3.8-3.8h-9.4c-2.1 0-3.8 1.7-3.8 3.8v5.4c-4.9 2.9-8.2 8.2-8.2 14.3v19.1c0 3 2.4 5.4 5.4 5.4h22.5c3 0 5.4-2.4 5.4-5.4V23.5c0-6.1-3.2-11.4-8.1-14.3zM18.8 3.8c0-.3.2-.5.5-.5h9.4c.3 0 .5.2.5.5v3.9c-1.6-.5-3.4-.9-5.2-.9-1.8 0-3.6.3-5.2.9V3.8zM35 41.5c0 .6-.5 1.1-1.1 1.1H14c-.6 0-1.1-.5-1.1-1.1V31.2c0-.6.5-1.1 1.1-1.1h20c.6 0 1.1.5 1.1 1.1v10.3zm-.3-20.1h-20c-.6 0-1.1-.5-1.1-1.1s.5-1.1 1.1-1.1h20c.6 0 1.1.5 1.1 1.1s-.5 1.1-1.1 1.1zM42.8 25.6H48v15.6h-5.2zM0 25.6h5.2v15.6H0zM11.8 9.2l-.6-2.5C11 5.5 9.9 4.6 8.6 4.6c-1.7 0-3 1.6-2.6 3.3l1.5 6.6c1.1-2 2.5-3.8 4.3-5.3zM39.4 4.6c-1.3 0-2.3.9-2.6 2.1l-.6 2.5c1.7 1.5 3.2 3.3 4.3 5.3L42 7.9c.4-1.7-.9-3.3-2.6-3.3z" />
  </g>
</svg>