<svg xmlns="http://www.w3.org/2000/svg" xml:space="preserve" style="enable-background:new 0 0 48 48;max-width:100%"
  viewBox="0 0 48 48">
  <style>
    .st0 {
      fill: #505155 
    }
  </style>
  <g fill="#505155">
    <path
      d="M1.2 27.4h45.3c.7 0 1.2-.5 1.2-1.2s-.5-1.2-1.2-1.2H1.2c-.7 0-1.2.5-1.2 1.2 0 .6.5 1.2 1.2 1.2zM47.7 45c-.4-.4-1-.4-1.4 0-1.4 1.4-3.7 1.4-5.2 0-1.1-1.1-2.5-1.7-4-1.7s-2.9.6-4 1.7c-1.4 1.4-3.7 1.4-5.2 0-1.1-1.1-2.5-1.7-4-1.7s-2.9.6-4 1.7c-1.4 1.4-3.7 1.4-5.2 0-1.1-1.1-2.5-1.7-4-1.7s-2.9.6-4 1.7c-1.4 1.4-3.7 1.4-5.2 0-.4-.4-1-.4-1.4 0s-.4 1 0 1.4c2.2 2.2 5.8 2.2 8 0 1.4-1.4 3.8-1.4 5.2 0 1.1 1.1 2.5 1.7 4 1.7s2.9-.6 4-1.7c1.4-1.4 3.8-1.4 5.2 0 2.2 2.2 5.8 2.2 8 0 1.4-1.4 3.8-1.4 5.2 0 2.2 2.2 5.8 2.2 8 0 .4-.4.4-1 0-1.4zM28.5 17.1h-8.7V4.7h-4.3v12.4h-3.2V0H8.1v17.1H5.6v5.8h22.9zM4.9 41h22.3c8 0 15.3-4.7 18.5-12H1.9v9c0 1.6 1.4 3 3 3zM38 30.4c.9 0 1.7.8 1.7 1.7 0 .9-.8 1.7-1.7 1.7-.9 0-1.7-.8-1.7-1.7 0-.9.7-1.7 1.7-1.7zm-6 0c.9 0 1.7.8 1.7 1.7 0 .9-.8 1.7-1.7 1.7s-1.7-.8-1.7-1.7c0-.9.8-1.7 1.7-1.7z" />
  </g>
</svg>