<svg xmlns="http://www.w3.org/2000/svg" xml:space="preserve" style="enable-background:new 0 0 48 48;max-width:100%"
  viewBox="0 0 48 48">
  <path fill="#505155 "
    d="M46.2 11.3h-.9c-1 0-1.8.8-1.8 1.8v4.2c0 .9.6 1.6 1.4 1.8v.9c0 .8-.7 1.5-1.5 1.5H42V2.8C42 1.2 40.8 0 39.2 0H8.8C7.2 0 6 1.2 6 2.8v18.7H4.7c-.8 0-1.5-.7-1.5-1.5v-.8c.8-.2 1.4-.9 1.4-1.8v-4.2c0-1-.8-1.8-1.8-1.8h-1c-1 0-1.8.8-1.8 1.8v4.2c0 .9.6 1.6 1.4 1.8v.8c0 1.8 1.5 3.3 3.3 3.3H6v15.3c0 1.5 1.2 2.8 2.8 2.8h1.1V46c0 1.1.9 2 2 2H15c1.1 0 2-.9 2-2v-4.7h14V46c0 1.1.9 2 2 2h3.1c1.1 0 2-.9 2-2v-4.7h1.1c1.5 0 2.8-1.2 2.8-2.8V23.3h1.3c1.8 0 3.3-1.5 3.3-3.3v-.8c.8-.2 1.4-.9 1.4-1.8v-4.2c0-1-.8-1.9-1.8-1.9zM9.7 3.7h12.9V24H9.7V3.7zm3.5 34.4c-1.8 0-3.3-1.5-3.3-3.3s1.5-3.3 3.3-3.3c1.8 0 3.3 1.5 3.3 3.3s-1.5 3.3-3.3 3.3zm7.9-1c0 .5-.4.9-.9.9s-.9-.4-.9-.9v-7.9c0-.5.4-.9.9-.9s.9.4.9.9v7.9zm3.8 0c0 .5-.4.9-.9.9s-.9-.4-.9-.9v-7.9c0-.5.4-.9.9-.9s.9.4.9.9v7.9zm3.9 0c0 .5-.4.9-.9.9s-.9-.4-.9-.9v-7.9c0-.5.4-.9.9-.9s.9.4.9.9v7.9zm2.7-2.4c0-1.8 1.5-3.3 3.3-3.3s3.3 1.5 3.3 3.3-1.5 3.3-3.3 3.3-3.3-1.4-3.3-3.3zM38.3 24H25.4V3.7h12.9V24z"
    style="fill:#505155 " />
</svg>