<svg xmlns="http://www.w3.org/2000/svg" xml:space="preserve" style="enable-background:new 0 0 48 48;max-width:100%"
  viewBox="0 0 48 48">
  <style>
    .st0 {
      fill: #505155 
    }
  </style>
  <g fill="#505155">
    <path
      d="M45 11.6H34.2L32.6 8c-.5-1.1-1.6-1.8-2.7-1.8H18.1c-1.2 0-2.3.7-2.7 1.8l-1.6 3.6h-4V9.2H5.3v2.4H3c-1.7 0-3 1.3-3 3v24.1c0 1.7 1.3 3 3 3h42c1.7 0 3-1.3 3-3V14.6c0-1.6-1.3-3-3-3zM19.2 8.7h9.5c.6 0 1 .4 1 1s-.4 1-1 1h-9.5c-.6 0-1-.4-1-1s.5-1 1-1zM24 38.1c-6.3 0-11.4-5.1-11.4-11.4S17.7 15.3 24 15.3c6.3 0 11.4 5.1 11.4 11.4S30.3 38.1 24 38.1zM41.3 21c-1 0-1.9-.8-1.9-1.9s.8-1.9 1.9-1.9 1.9.8 1.9 1.9-.9 1.9-1.9 1.9z" />
    <path
      d="M24 17.2c-5.2 0-9.5 4.3-9.5 9.5s4.3 9.5 9.5 9.5 9.5-4.3 9.5-9.5-4.3-9.5-9.5-9.5zm5.1 7.6c-.4.4-1.5.2-2.3-.6-.8-.8-1.1-1.8-.6-2.3.4-.4 1.5-.2 2.3.6.8.8 1.1 1.8.6 2.3z" />
  </g>
</svg>