<svg xmlns="http://www.w3.org/2000/svg" xml:space="preserve" style="enable-background:new 0 0 48 48;max-width:100%"
  viewBox="0 0 48 48">
  <style>
    .st0 {
      fill: #505155 
    }
  </style>
  <g fill="#505155">
    <path
      d="m0 41 14.3 7V19.4L0 12.4zM16 19.4V48l14.3-7V24.2c-1.8-3-3.6-6.4-4.8-9.4L16 19.4zM45.5 18.3c-2.8 5.7-9.2 15.1-9.2 15.1L32 27v14l16 7V19.4l-2.5-1.1z" />
    <path
      d="M46.2 9.9c0-5.5-4.5-9.9-9.9-9.9-5.5 0-9.9 4.5-9.9 9.9 0 5.5 9.9 19.9 9.9 19.9s9.9-14.4 9.9-19.9zm-16.9 0c0-3.8 3.1-6.9 6.9-6.9s6.9 3.1 6.9 6.9-3.1 6.9-6.9 6.9-6.9-3-6.9-6.9z" />
  </g>
</svg>