<svg xmlns="http://www.w3.org/2000/svg" xml:space="preserve" style="enable-background:new 0 0 48 48;max-width:100%"
  viewBox="0 0 48 48">
  <style>
    .st0 {
      fill: #505155
    }
  </style>
  <g fill="#505155">
    <path
      d="M34.6 6.3c-.2-.7-.8-1.2-1.5-1.2H14.9c-.7 0-1.3.5-1.5 1.2l-1 4.3h-2.3v32.2h27.7V10.7h-2.3l-.9-4.4zM16.1 8.2H32l.6 2.5h-17l.5-2.5zm12.4 17.4-2.8 2.8c-.6.6-2.4 1.6-4.2 0l-5.8-5.8c-1.2-1.2-1.2-3.1 0-4.2l2.8-2.8c1.2-1.2 3.1-1.2 4.2 0l5.8 5.8c1.2 1.1 1.2 3 0 4.2zM0 13.7v26.2c0 1.7 1.3 3 3 3h5.2V10.7H3c-1.7 0-3 1.3-3 3z" />
    <path
      d="m19.9 16.9-2.8 2.8c-.4.4-.4 1 0 1.4l5.8 5.8c.4.4 1 .4 1.4 0l2.8-2.8c.4-.4.4-1 0-1.4l-5.8-5.8c-.4-.4-1-.4-1.4 0zM45 10.7h-5.2v32.2H45c1.7 0 3-1.3 3-3V13.7c0-1.7-1.3-3-3-3z" />
  </g>
</svg>