<svg xmlns="http://www.w3.org/2000/svg" xml:space="preserve" style="enable-background:new 0 0 48 48;max-width:100%"
  viewBox="0 0 48 48">
  <style>
    .st0 {
      fill: #505155
    }
  </style>
  <g fill="#505155">
    <path d="M-2 6.2h17.5v5.5H-2z" transform="rotate(-60 6.76 8.943)" />
    <path d="M39.2 27.1h8.4V33h-8.4z" transform="rotate(-60 43.343 30.064)" />
    <path
      d="m14.3 5.3-6.9 12 9.5 5.5c.9-1.8 2.8-3 4.9-3 3.1 0 5.6 2.5 5.6 5.6 0 1.1-.3 2.1-.9 3l9 5.2 6.9-12L14.3 5.3z" />
    <path
      d="M25.4 25.4c0-2-1.6-3.6-3.6-3.6s-3.6 1.6-3.6 3.6c0 1.2.6 2.3 1.6 3L10 48h3.4l8.4-16.9L30.2 48h3.4l-9.8-19.6c1-.7 1.6-1.8 1.6-3z" />
  </g>
</svg>