<svg xmlns="http://www.w3.org/2000/svg" xmlns:xlink="http://www.w3.org/1999/xlink" version="1.1" x="0px" y="0px" viewBox="0 0 100 100" enable-background="new 0 0 100 100" xml:space="preserve" style="max-width:100%" height="100" width="100" ><g style="" fill="#FFFFFF"><path d="M66.937,6.331c-0.546-0.745-1.421-1.235-2.415-1.235h-9.778c-0.885,0-1.672,0.39-2.221,1H35.475   c-7.02,0-12.73,5.711-12.73,12.73v63.347c0,7.02,5.711,12.73,12.73,12.73h29.06c7.014,0,12.72-5.711,12.72-12.73V18.826   C77.255,12.629,72.806,7.459,66.937,6.331z M71.255,82.174c0,3.711-3.015,6.73-6.72,6.73h-29.06c-3.711,0-6.73-3.02-6.73-6.73   V18.826c0-3.711,3.019-6.73,6.73-6.73h29.06c3.706,0,6.72,3.019,6.72,6.73V82.174z" style="" fill="#FFFFFF"></path><path d="M65.183,65.587H34.817c-1.657,0-3,1.343-3,3s1.343,3,3,3h30.366c1.657,0,3-1.343,3-3S66.84,65.587,65.183,65.587z" style="" fill="#FFFFFF"></path><path d="M50,76.223c-2.692,0-4.882,2.19-4.882,4.882s2.19,4.882,4.882,4.882s4.882-2.19,4.882-4.882S52.692,76.223,50,76.223z    M50,82.223c-0.617,0-1.118-0.502-1.118-1.118s0.501-1.118,1.118-1.118s1.118,0.502,1.118,1.118S50.617,82.223,50,82.223z" style="" fill="#FFFFFF"></path></g></svg>